<svg xmlns="http://www.w3.org/2000/svg" viewBox="-500 -500 1200 1000" class="mx-auto max-w-xs"><path vector-effect="non-scaling-stroke" fill="none" style="stroke:#374151;stroke-width:20" d="m-334-97 3-8 3-9 4-8 3-8 3-9 4-9 3-9 3-8 4-9 3-8 3-9 4-9 3-8 4-9 3-8 3-8 3-9 4-9 3-8 3-9 4-9 3-9 3-8 3-9 4-8 3-9 3-8 2-7 3-7 3-7 2-6 3-6 2-5 2-5 3-5 2-4 3-4 2-4 3-3 3-4 3-3 4-2 3-3 4-2 3-1 4-2 4-1h12l5 2 4 1 4 2 4 3 3 2 3 3 3 3 3 4 1 3 2 3 1 3 2 6 1 4v11l-1 6-1 4-1 3-1 4-1 4-1 4-2 5-2 4-1 4-2 4-2 5-3 4-2 5-2 5-2 4-2 5-2 5-3 5-2 6-2 5-2 5-1 5-2 6-2 5-1 6-2 6-1 6-1 5-1 6-1 6-1 7v6l-1 6v12l-1 6v18l-1 6-1 5-1 6-1 6-1 5-2 5-2 5-3 5-2 4-3 4-3 5-4 3-3 3-4 4-4 2-4 3-4 2-4 2-4 3-5 2-4 2-5 2-4 1-4 2-4 2-4 2-4 1-4 2-3 2-3 2-3 2-3 2-3 4-2 2-3 4-2 4-1 4-1 5 1 6 1 3 1 4 2 3 2 3 4 4 5 4 3 2 5 2 9 2h10l12-2 5-1 5-1 3-1 4-2 4-1 5-1 4-2 4-1 4-1 4-2 4-1 4-2 5-1 4-2 5-2 4-1 5-2 5-2 4-1 5-2 5-1 6-1 5-2 5-1 6-1 6-1h6l5-1 6-1h37l7 1h6l7 1 6 1 7 1 7 1 7 1 7 1 7 1 6 2 7 1 7 1 6 2 8 1 7 1 7 1h22l7-1h7l7-1 6-1 7-2 7-1 7-2 7-2 7-3 6-3 7-3 6-3 6-3 7-4 6-4 6-4 6-3 7-4 6-4 6-4 7-3 7-4 6-2 7-3 6-3 7-2 7-2 7-2 7-2 7-2 7-1 7-1 7-1 7-1 8-1h14l8-1h58l8 1h7l7 1 8 1 7 2 7 1 7 2 6 3 6 2 7 3 5 3 6 3 6 4 5 4 5 4 5 5 4 5 3 5 4 5 3 5 3 6 3 6 2 7 2 6 1 6 1 6v6l1 9-1 6v7l-1 6-2 6-1 7-2 6-3 6-2 5-3 6-3 6-4 5-4 5-3 5-5 6-3 5-5 5-3 5-4 6-4 5-3 6-4 6-3 6-3 6-3 6-3 5-3 6-2 6-2 5-2 5-2 5-2 6-2 4-2 5-2 5-2 4-2 5-2 4-3 4-2 4-3 4-3 3-3 4-3 3-3 3-4 3-3 2-4 3-3 2-4 3-4 1-4 2-4 2-5 2-4 1-5 1-4 1h-5l-4 1h-25l-5-1-5-1h-6l-5-1-5-2-5-1-5-1-5-2-5-1-5-2-5-2-5-2-5-2-5-3-5-3-4-2-4-3-4-3-4-3-4-3-3-3-4-3-2-3-3-3-4-5-2-3-2-5-2-3-1-3-1-4-1-4v-12l1-4 2-4 2-4 3-6 4-5 3-4 4-4 4-3 5-3 4-2 5-3 4-1 5-1 5-2h4l4-1 4-1h8l4-1h8l4-1h14l4-1h5l4-1 5-1 4-1 5-1 4-2 5-1 4-2 4-2 5-2 4-2 4-3 3-2 4-3 4-4 3-3 3-5 3-3 2-3 1-3 2-4 1-4 1-3V49l-1-4-1-4-1-3-2-5-2-3-1-3-3-2-2-3-2-3-3-2-2-2-3-3-5-3-3-2-3-1-5-2-4-2-5-1-7-2h-4l-4-1h-3l-4-1h-21l-5-1h-19l-5 1h-31l-6 1h-10l-6 1h-6l-15 2-6 1h-5l-6 1-6 1-7 1-6 1-6 1-6 1-6 1-7 1-7 2-6 1-7 2-6 1-6 2-6 1-7 2-7 2-6 2-7 2-6 1-7 3-7 2-7 2-6 2-7 2-7 3-7 2-7 3-7 2-6 3-6 3-7 3-6 3-7 3-7 3-7 4-6 3-6 3-6 2-6 3-4 3-6 2-4 3-4 2-4 2-5 3-3 1-5 3-4 2-6 2-5 2-4 1-6 1h-6l-4-1-4-1h-2l-3-2-4-2-3-2-4-4-4-3-3-4-4-3-3-2-3-2-5-3-4-1-4-1h-9l-4 1-6 2-4 2-3 2-4 4-3 4-2 3-2 5-2 4v3l-1 6v16l1 5v5l1 4 1 6 1 4v3l1 4 1 5 1 4 1 5 1 4 2 5 1 5 1 5 1 4 2 5 1 5 1 5 1 5 2 5 1 5 2 5 1 6 1 5 2 5 1 6 2 6 1 5 1 6 2 5 1 6 1 6 1 5 2 6 1 6 1 5 1 5 1 5 1 5v5l1 5 1 4v19l-1 4v4l-1 5-2 4-1 4-2 4-2 3-2 4-3 3-3 4-3 3-3 3-3 2-4 3-4 2-4 2-4 2-4 2-5 2-4 1-5 1-4 1-5 1-5 1h-4l-6 1h-31l-6-1h-6l-5-1-6-1-5-1-5-1-6-1-6-2-5-1-6-2-6-2-5-3-5-2-5-3-5-3-5-4-5-4-5-4-4-4-5-4-4-5-4-5-4-5-3-5-4-5-3-6-2-5-3-6-2-6-3-6-1-6-2-6-1-7-1-6-1-7v-19l1-7v-7l2-6 1-7 1-6 2-6 2-7 2-7 2-6 2-6 2-6 3-7 2-6 2-7 3-7 3-6 2-7 2-6 3-7 2-7 3-7 2-6 3-7 2-7 3-7 2-7 3-6 2-7 3-7 3-7 2-7 3-7 2-7 3-7 3-7 2-8 3-6 2-7 3-7 3-8 4-10 2-7 3-7 3-7 3-7 2-7 3-7 3-7 3-7 3-7 2-7 3-7 3-7 1-4 2-5z"/><path vector-effect="non-scaling-stroke" fill="none" style="stroke:#ef4444;stroke-width:9" d="m-334-97 3-8 3-9 4-8 3-8 3-9 4-9 3-9 3-8 4-9 3-8 3-9 4-9 3-8 4-9 3-8 3-8 3-9 4-9 3-8 3-9 4-9 3-9 3-8 3-9 4-8 3-9 3-8 2-7 3-7 3-7 2-6 3-6 2-5 2-5 3-5 2-4 3-4 2-4 3-3 3-4 3-3 4-2 3-3 4-2 3-1 4-2 4-1h12l5 2 4 1 4 2 4 3 3 2 3 3 3 3 3 4 1 3 2 3 1 3 2 6 1 4v11l-1 6-1 4-1 3-1 4-1 4-1 4-2 5-2 4-1 4-2 4-2 5-3 4-2 5-2 5-2 4-2 5-2 5-3 5-2 6-2 5-2 5-1 5-2 6-2 5-1 6-2 6-1 6-1 5-1 6-1 6-1 7v6l-1 6v12l-1 6v18l-1 6-1 5-1 6-1 6-1 5-2 5-2 5-3 5-2 4-3 4-3 5-4 3-3 3-4 4-4 2-4 3-4 2-4 2-4 3-5 2-4 2-5 2-4 1-4 2-4 2-4 2-4 1-4 2-3 2-3 2-3 2-3 2-3 4-2 2-3 4-2 4-1 4-1 5 1 6 1 3 1 4 2 3 2 3 4 4 5 4 3 2 5 2 9 2h10l12-2 5-1 5-1 3-1 4-2 4-1 5-1 4-2 4-1 4-1 4-2 4-1 4-2 5-1 4-2 5-2 4-1 5-2 5-2 4-1 5-2 5-1 6-1 5-2 5-1 6-1 6-1h6l5-1 6-1h37l7 1h6l7 1 6 1 7 1 7 1 7 1 7 1 7 1 6 2 7 1 7 1 6 2 8 1 7 1 7 1h22l7-1h7l7-1 6-1 7-2 7-1 7-2 7-2 7-3 6-3 7-3 6-3 6-3 7-4 6-4 6-4 6-3 7-4 6-4 6-4 7-3 7-4 6-2 7-3 6-3 7-2 7-2 7-2 7-2 7-2 7-1 7-1 7-1 7-1 8-1h14l8-1h58l8 1h7l7 1 8 1 7 2 7 1 7 2 6 3 6 2 7 3 5 3 6 3 6 4 5 4 5 4 5 5 4 5 3 5 4 5 3 5 3 6 3 6 2 7 2 6 1 6 1 6v6l1 9-1 6v7l-1 6-2 6-1 7-2 6-3 6-2 5-3 6-3 6-4 5-4 5-3 5-5 6-3 5-5 5-3 5-4 6-4 5-3 6-4 6-3 6-3 6-3 6-3 5-3 6-2 6-2 5-2 5"/><path vector-effect="non-scaling-stroke" fill="none" style="stroke:#3b82f6;stroke-width:9" d="m419 171-2 5-2 6-2 4-2 5-2 5-2 4-2 5-2 4-3 4-2 4-3 4-3 3-3 4-3 3-3 3-4 3-3 2-4 3-3 2-4 3-4 1-4 2-4 2-5 2-4 1-5 1-4 1h-5l-4 1h-25l-5-1-5-1h-6l-5-1-5-2-5-1-5-1-5-2-5-1-5-2-5-2-5-2-5-2-5-3-5-3-4-2-4-3-4-3-4-3-4-3-3-3-4-3-2-3-3-3-4-5-2-3-2-5-2-3-1-3-1-4-1-4v-12l1-4 2-4 2-4 3-6 4-5 3-4 4-4 4-3 5-3 4-2 5-3 4-1 5-1 5-2h4l4-1 4-1h8l4-1h8l4-1h14l4-1h5l4-1 5-1 4-1 5-1 4-2 5-1 4-2 4-2 5-2 4-2 4-3 3-2 4-3 4-4 3-3 3-5 3-3 2-3 1-3 2-4 1-4 1-3V49l-1-4-1-4-1-3-2-5-2-3-1-3-3-2-2-3-2-3-3-2-2-2-3-3-5-3-3-2-3-1-5-2-4-2-5-1-7-2h-4l-4-1h-3l-4-1h-21l-5-1h-19l-5 1h-31l-6 1h-10l-6 1h-6l-15 2-6 1h-5l-6 1-6 1-7 1-6 1-6 1-6 1-6 1-7 1-7 2-6 1-7 2-6 1-6 2-6 1-7 2-7 2-6 2-7 2-6 1-7 3-7 2-7 2-6 2-7 2-7 3-7 2-7 3-7 2-6 3-6 3-7 3-6 3"/><path vector-effect="non-scaling-stroke" fill="none" style="stroke:#fbbf24;stroke-width:9" d="m-48 61-7 3-7 3-7 4-6 3-6 3-6 2-6 3-4 3-6 2-4 3-4 2-4 2-5 3-3 1-5 3-4 2-6 2-5 2-4 1-6 1h-6l-4-1-4-1h-2l-3-2-4-2-3-2-4-4-4-3-3-4-4-3-3-2-3-2-5-3-4-1-4-1h-9l-4 1-6 2-4 2-3 2-4 4-3 4-2 3-2 5-2 4v3l-1 6v16l1 5v5l1 4 1 6 1 4v3l1 4 1 5 1 4 1 5 1 4 2 5 1 5 1 5 1 4 2 5 1 5 1 5 1 5 2 5 1 5 2 5 1 6 1 5 2 5 1 6 2 6 1 5 1 6 2 5 1 6 1 6 1 5 2 6 1 6 1 5 1 5 1 5 1 5v5l1 5 1 4v19l-1 4v4l-1 5-2 4-1 4-2 4-2 3-2 4-3 3-3 4-3 3-3 3-3 2-4 3-4 2-4 2-4 2-4 2-5 2-4 1-5 1-4 1-5 1-5 1h-4l-6 1h-31l-6-1h-6l-5-1-6-1-5-1-5-1-6-1-6-2-5-1-6-2-6-2-5-3-5-2-5-3-5-3-5-4-5-4-5-4-4-4-5-4-4-5-4-5-4-5-3-5-4-5-3-6-2-5-3-6-2-6-3-6-1-6-2-6-1-7-1-6-1-7v-19l1-7v-7l2-6 1-7 1-6 2-6 2-7 2-7 2-6 2-6 2-6 3-7 2-6 2-7 3-7 3-6 2-7 2-6 3-7 2-7 3-7 2-6 3-7 2-7 3-7 2-7 3-6 2-7 3-7 3-7 2-7 3-7 2-7 3-7 3-7 2-8 3-6 2-7 3-7 3-8 4-10 2-7 3-7 3-7 3-7 2-7 3-7 3-7 3-7 3-7 2-7 3-7 3-7 1-4 2-5"/><circle cx="-334" cy="-97" r="17" stroke="#000" stroke-width="13" fill="#fff"/></svg>