<svg xmlns="http://www.w3.org/2000/svg" viewBox="-900 -150 2000 1300" class="mx-auto max-w-xs"><path vector-effect="non-scaling-stroke" fill="none" style="stroke:#374151;stroke-width:20" d="m-714 660 5 4 5 3 5 4 5 4 6 4 5 4 6 4 6 5 6 4 6 4 5 5 7 4 5 4 7 5 5 4 7 5 6 4 6 5 6 5 6 4 6 5 7 5 7 5 6 5 7 4 7 5 6 5 7 5 7 5 6 5 7 5 7 5 6 5 7 5 7 5 7 5 6 5 8 5 6 5 7 5 7 5 7 5 7 5 7 6 7 5 7 5 7 5 7 5 6 6 8 5 7 6 7 5 7 5 7 6 7 5 7 6 7 5 8 5 7 6 7 6 7 5 7 5 7 6 7 5 8 6 6 5 7 5 6 5 6 4 6 4 4 4 5 4 5 3 4 3 3 2 4 3 3 2 5 2 5 2 5 2 7 1 6-1h5l5-2 3-1 3-2 2-2 2-1 1-2 2-2 1-2 1-3 2-3 1-5 1-5v-4l-1-5-1-6-1-5-1-3-2-5-1-4-2-4-2-4-2-4-2-4-2-4-2-4-2-4-3-5-2-4-3-5-2-5-3-5-3-5-2-5-2-6-3-6-2-6-2-6-2-6-1-7-1-6-1-7-1-7v-13l1-7 1-7 1-7 1-7 2-7 3-7 2-6 4-7 3-7 4-6 5-7 4-6 5-5 6-6 5-5 6-6 6-4 7-5 7-4 7-5 7-3 6-4 8-4 7-4 7-3 7-4 7-4 7-4 7-4 7-5 6-4 6-5 7-6 6-5 7-6 5-6 6-6 6-7 5-7 4-7 5-7 4-7 4-8 4-7 4-7 5-8 5-6 6-7 5-6 7-6 6-6 7-5 7-5 7-5 7-5 6-5 7-5 5-6 5-5 5-6 5-6 3-6 4-6 3-7 3-7 3-7 2-7 2-7 2-7 2-7 2-7 2-6 3-7 3-6 4-7 4-6 4-6 5-5 4-5 4-4 5-5 6-3 5-4 5-2 6-3 5-2 6-2 6-1 6-1 6-1h12l6 1h6l6 2 6 1 6 2 6 3 6 3 6 3 6 3 6 3 6 2 6 3 7 3 7 2 6 2 6 2 6 1 6 1h17l6-1h5l5-2 4-1 6-2 4-2 5-3 5-3 4-3 4-4 5-4 4-4 3-4 4-4 4-5 4-5 4-5 4-5 3-4 4-4 4-4 3-4 3-3 4-2 4-3 3-2 3-2 4-1 4-1 3-1 4-1h4l4-1 3 1h8l4 1 4 1 4 2 3 1 4 2 4 2 4 2 3 3 4 2 3 3 4 3 5 4 4 2 5 3 4 2 4 2 5 1 5 2 5 1h5l5 1h22l5-1 6-1 6-1 6-1 5-1 6-2 6-2 6-2 6-1 7-2 6-2 7-2 6-2 7-2 7-3 6-2 7-3 7-3 7-3 6-3 7-4 6-3 6-4 7-5 6-5 6-4 5-5 6-6 6-5 5-5 5-7 5-5 6-7 5-6 5-6 5-6 5-7 6-6 5-7 5-6 5-7 5-6 6-7 5-6 5-6 5-7 5-6 6-7 5-7 5-6 5-7 6-7 6-7 5-6 5-7 6-7 5-6 5-6 5-7 4-5 5-5 4-5 3-4 4-5 3-3 3-4 2-4 3-3 3-4 2-5 3-4 2-4 2-7v-10l-1-5-2-4-1-3-3-3-1-1-2-2-2-1-5-3-3-1-4-1-6-1h-4l-4 1h-5l-4 1-5 2-5 1-4 1-3 2-4 1-4 1-4 2-5 1-4 2-4 2-4 1-5 2-5 2-5 2-5 2-5 2-6 2-6 2-5 2-6 2-6 2-8 3-7 2-6 2-6 2-6 2-7 3-6 2-7 2-7 2-6 2-7 2-7 2-6 2-8 3-6 2-7 2-8 2-7 3-7 2-7 2-8 2-7 3-8 2-7 3-8 2-7 2-8 2-8 3-7 2-8 2-8 2-8 2-8 3-8 2-7 2-8 2-8 3-8 2-8 2-8 2-9 3-8 2-8 2-9 2-8 2-8 2-9 2-9 2-8 2-8 2-8 2-9 1-9 2-8 2-9 2-9 2-8 2-9 2-9 1-8 2-9 2-9 2-9 1-8 2-9 1-9 2-9 2-9 1-9 2-9 2-10 1-8 2-10 1-9 2-9 2-9 1-9 1-8 2-10 1-9 2-9 1-8 2-10 1-10 1-9 2-9 1-9 2-10 1-8 1-10 2-9 1-9 2-10 1-9 1-9 2-10 1-10 1-9 1-9 2-9 1-9 1-14 2-10 1-9 1-9 2-10 1-8 1-8 1-9 1-7 1h-7l-7 1-6 1-5 1h-6l-5 1-4 1h-5l-4 1h-4l-5 2-6 1-5 2-4 2-3 3-4 3-4 5-1 3-1 2-1 3-1 2v7l1 6 1 4 1 4 2 4 2 5 3 4 3 4 3 3 2 3 3 3 4 4 3 3 3 3 3 4 4 3 3 3 4 4 4 3 3 4 4 3 4 4 5 4 4 4 4 4 4 4 4 5 4 4 4 5 3 4 3 5 2 4 2 3 2 4 2 5 2 6 1 5v12l-1 4-1 3-1 3-1 2-1 3-2 2-1 2-4 3-4 4-4 2-5 2-5 2h-5l-5 1h-10l-6-1-4-1-3-1-6-3-5-2-4-2-4-3-3-2-4-3-3-3-3-4-4-3-2-4-3-4-3-5-3-4-2-5-2-4-3-5-3-6-2-5-3-5-3-5-3-6-4-5-3-5-3-4-4-4-3-4-3-3-4-3-3-3-3-2-4-2-3-2-5-2-6-1-5-1h-11l-4 1-6 2-4 4-3 2-2 3-2 3-1 2-1 3-1 4v15l1 5 2 6 2 4 2 5 2 3 3 5 2 3 4 4 2 3 4 5 3 3 3 4 3 3 3 4 3 4 4 3 3 4 4 4 3 4 4 5 3 4 4 5 3 5 4 5 3 5 3 6 3 6 2 6 3 6 2 6 1 7 2 7 1 6v7l1 7-1 7v7l-2 7-1 7-2 7-3 7-2 7-4 7-3 6-4 6-4 6-4 6-6 6-5 5-5 5-7 5-6 4-6 4-7 3-7 4-7 3-7 2-7 2-7 2-8 1-8 1-7 1h-8l-8-1-8-1-7-1-7-2-8-2-7-2-7-3-7-4-6-3-7-5-6-4-6-5-6-5-6-5-6-6-5-6-6-6-5-6-5-7-4-6-5-7-4-7-4-7-5-7-4-7-5-7-4-8-5-7-5-7-5-6-5-7-4-6-5-5-4-5-5-4-4-4-4-4-5-2-4-3-5-3-5-2-5-1-5-2-5-1h-5l-5-1h-10l-5 1h-6l-5 1-5 1-6 2-6 2-6 2-5 2-6 2-6 3-6 2-5 3-7 3-6 3-6 3-6 3-6 3-7 3-6 2-7 4-7 2-6 4-7 3-7 3-6 3-7 4-7 3-6 3-5 2-6 3-5 2-5 3-4 2-4 2-4 2-3 1-4 2-4 3-4 3-3 4-3 3-3 5-1 3-2 5v15l1 3v3l3 6 3 6 4 6 2 2 4 5 3 2 2 3 3 2 4 3 3 3 4 2 3 3 4 3 4 3 4 2 4 4 4 3 5 3 5 4 4 3 5 3 5 4 5 3 5 4 8 5z"/><path vector-effect="non-scaling-stroke" fill="none" style="stroke:#ef4444;stroke-width:9" d="m-714 660 5 4 5 3 5 4 5 4 6 4 5 4 6 4 6 5 6 4 6 4 5 5 7 4 5 4 7 5 5 4 7 5 6 4 6 5 6 5 6 4 6 5 7 5 7 5 6 5 7 4 7 5 6 5 7 5 7 5 6 5 7 5 7 5 6 5 7 5 7 5 7 5 6 5 8 5 6 5 7 5 7 5 7 5 7 5 7 6 7 5 7 5 7 5 7 5 6 6 8 5 7 6 7 5 7 5 7 6 7 5 7 6 7 5 8 5 7 6 7 6 7 5 7 5 7 6 7 5 8 6 6 5 7 5 6 5 6 4 6 4 4 4 5 4 5 3 4 3 3 2 4 3 3 2 5 2 5 2 5 2 7 1 6-1h5l5-2 3-1 3-2 2-2 2-1 1-2 2-2 1-2 1-3 2-3 1-5 1-5v-4l-1-5-1-6-1-5-1-3-2-5-1-4-2-4-2-4-2-4-2-4-2-4-2-4-2-4-3-5-2-4-3-5-2-5-3-5-3-5-2-5-2-6-3-6-2-6-2-6-2-6-1-7-1-6-1-7-1-7v-13l1-7 1-7 1-7 1-7 2-7 3-7 2-6 4-7 3-7 4-6 5-7 4-6 5-5 6-6 5-5 6-6 6-4 7-5 7-4 7-5 7-3 6-4 8-4 7-4 7-3 7-4 7-4 7-4 7-4 7-5 6-4 6-5 7-6 6-5 7-6 5-6 6-6 6-7 5-7 4-7 5-7 4-7 4-8 4-7 4-7 5-8 5-6 6-7 5-6 7-6 6-6 7-5 7-5 7-5 7-5 6-5 7-5 5-6 5-5 5-6 5-6 3-6 4-6 3-7 3-7 3-7 2-7 2-7 2-7 2-7 2-7 2-6 3-7 3-6 4-7 4-6 4-6 5-5 4-5 4-4 5-5 6-3 5-4 5-2 6-3 5-2 6-2 6-1 6-1 6-1h12l6 1h6l6 2 6 1 6 2 6 3 6 3 6 3 6 3 6 3 6 2"/><path vector-effect="non-scaling-stroke" fill="none" style="stroke:#3b82f6;stroke-width:9" d="m291 366 6 3 7 3 7 2 6 2 6 2 6 1 6 1h17l6-1h5l5-2 4-1 6-2 4-2 5-3 5-3 4-3 4-4 5-4 4-4 3-4 4-4 4-5 4-5 4-5 4-5 3-4 4-4 4-4 3-4 3-3 4-2 4-3 3-2 3-2 4-1 4-1 3-1 4-1h4l4-1 3 1h8l4 1 4 1 4 2 3 1 4 2 4 2 4 2 3 3 4 2 3 3 4 3 5 4 4 2 5 3 4 2 4 2 5 1 5 2 5 1h5l5 1h22l5-1 6-1 6-1 6-1 5-1 6-2 6-2 6-2 6-1 7-2 6-2 7-2 6-2 7-2 7-3 6-2 7-3 7-3 7-3 6-3 7-4 6-3 6-4 7-5 6-5 6-4 5-5 6-6 6-5 5-5 5-7 5-5 6-7 5-6 5-6 5-6 5-7 6-6 5-7 5-6 5-7 5-6 6-7 5-6 5-6 5-7 5-6 6-7 5-7 5-6 5-7 6-7 6-7 5-6 5-7 6-7 5-6 5-6 5-7 4-5 5-5 4-5 3-4 4-5 3-3 3-4 2-4 3-3 3-4 2-5 3-4 2-4 2-7v-10l-1-5-2-4-1-3-3-3-1-1-2-2-2-1-5-3-3-1-4-1-6-1h-4l-4 1h-5l-4 1-5 2-5 1-4 1-3 2-4 1-4 1-4 2-5 1-4 2-4 2-4 1-5 2-5 2-5 2-5 2-5 2-6 2-6 2-5 2-6 2-6 2-8 3-7 2-6 2-6 2-6 2-7 3-6 2-7 2-7 2-6 2-7 2-7 2-6 2-8 3-6 2-7 2-8 2-7 3-7 2-7 2-8 2-7 3-8 2-7 3-8 2-7 2-8 2-8 3-7 2-8 2-8 2-8 2-8 3-8 2-7 2-8 2-8 3-8 2-8 2-8 2-9 3-8 2-8 2-9 2-8 2-8 2-9 2-9 2-8 2-8 2-8 2-9 1-9 2-8 2-9 2-9 2-8 2-9 2-9 1-8 2-9 2-9 2-9 1-8 2-9 1-9 2-9 2-9 1-9 2-9 2-10 1-8 2-10 1-9 2-9 2-9 1-9 1-8 2-10 1-9 2-9 1-8 2-10 1-10 1-9 2-9 1-9 2-10 1-8 1-10 2-9 1-9 2-10 1-9 1-9 2-10 1-10 1-9 1-9 2-9 1-9 1-14 2-10 1-9 1-9 2-10 1-8 1-8 1-9 1-7 1h-7l-7 1-6 1-5 1h-6l-5 1-4 1h-5l-4 1h-4l-5 2-6 1-5 2-4 2-3 3-4 3-4 5-1 3-1 2-1 3-1 2v7l1 6 1 4 1 4 2 4 2 5 3 4 3 4 3 3 2 3 3 3 4 4 3 3 3 3 3 4 4 3 3 3 4 4 4 3 3 4 4 3 4 4 5 4 4 4"/><path vector-effect="non-scaling-stroke" fill="none" style="stroke:#fbbf24;stroke-width:9" d="m-98 325 4 4 4 4 4 5 4 4 4 5 3 4 3 5 2 4 2 3 2 4 2 5 2 6 1 5v12l-1 4-1 3-1 3-1 2-1 3-2 2-1 2-4 3-4 4-4 2-5 2-5 2h-5l-5 1h-10l-6-1-4-1-3-1-6-3-5-2-4-2-4-3-3-2-4-3-3-3-3-4-4-3-2-4-3-4-3-5-3-4-2-5-2-4-3-5-3-6-2-5-3-5-3-5-3-6-4-5-3-5-3-4-4-4-3-4-3-3-4-3-3-3-3-2-4-2-3-2-5-2-6-1-5-1h-11l-4 1-6 2-4 4-3 2-2 3-2 3-1 2-1 3-1 4v15l1 5 2 6 2 4 2 5 2 3 3 5 2 3 4 4 2 3 4 5 3 3 3 4 3 3 3 4 3 4 4 3 3 4 4 4 3 4 4 5 3 4 4 5 3 5 4 5 3 5 3 6 3 6 2 6 3 6 2 6 1 7 2 7 1 6v7l1 7-1 7v7l-2 7-1 7-2 7-3 7-2 7-4 7-3 6-4 6-4 6-4 6-6 6-5 5-5 5-7 5-6 4-6 4-7 3-7 4-7 3-7 2-7 2-7 2-8 1-8 1-7 1h-8l-8-1-8-1-7-1-7-2-8-2-7-2-7-3-7-4-6-3-7-5-6-4-6-5-6-5-6-5-6-6-5-6-6-6-5-6-5-7-4-6-5-7-4-7-4-7-5-7-4-7-5-7-4-8-5-7-5-7-5-6-5-7-4-6-5-5-4-5-5-4-4-4-4-4-5-2-4-3-5-3-5-2-5-1-5-2-5-1h-5l-5-1h-10l-5 1h-6l-5 1-5 1-6 2-6 2-6 2-5 2-6 2-6 3-6 2-5 3-7 3-6 3-6 3-6 3-6 3-7 3-6 2-7 4-7 2-6 4-7 3-7 3-6 3-7 4-7 3-6 3-5 2-6 3-5 2-5 3-4 2-4 2-4 2-3 1-4 2-4 3-4 3-3 4-3 3-3 5-1 3-2 5v15l1 3v3l3 6 3 6 4 6 2 2 4 5 3 2 2 3 3 2 4 3 3 3 4 2 3 3 4 3 4 3 4 2 4 4 4 3 5 3 5 4 4 3 5 3 5 4 5 3 5 4 8 5"/><circle cx="-714" cy="660" r="17" stroke="#000" stroke-width="13" fill="#fff"/></svg>