<svg xmlns="http://www.w3.org/2000/svg" viewBox="-590 -380 720 1150" class="mx-auto max-w-xs"><path vector-effect="non-scaling-stroke" fill="none" style="stroke:#374151;stroke-width:20" d="m-504 398 2 9 2 10 3 9 2 9 2 9 3 10 2 9 3 10 2 9 2 9 3 9 2 9 2 9 3 10 2 9 2 9 2 9 3 9 2 10 2 8 3 9 2 9 2 8 2 8 2 7 2 7 2 6 2 6 3 6 1 4 2 5 2 4 2 4 3 4 2 4 3 3 2 3 3 3 3 2 3 2 5 3 3 1 5 2 3 1h12l3-1 3-1 3-1 3-1 4-2 2-1 3-2 4-3 7-5 4-4 5-3 4-3 4-2 4-2 4-2 4-1 4-2 5-1 5-1h5l4-1h5l6 1h5l5 1 5 2 5 1 5 2 5 2 4 2 6 3 5 2 5 2 6 2 5 2 6 1 6 1 6 1h7l6 1h7l6-1h7l7-1 6-2 7-2 6-2 7-2 6-3 7-3 6-4 6-3 6-4 6-5 6-5 5-5 6-5 5-6 5-5 4-7 5-6 4-7 4-6 4-7 3-7 3-8 4-8 2-7 3-8 2-8 2-7 2-9 2-7 2-8 2-8 2-9 2-8 2-8 2-8 2-8 2-8 2-8 2-8 2-9 2-9 3-8 2-8 2-8 2-9 2-8 4-13 2-9 2-8 3-9 2-9 2-9 2-8 3-9 2-9 2-8 3-9 2-9 2-9 2-8 2-9 3-9 2-9 2-9 2-8 3-9 2-9 2-9 2-9 3-9 2-9 2-9 3-8 2-9 3-10 2-9 2-8 3-10 2-9 3-9 2-8 2-9 2-7 2-8 2-7 2-6 1-6 2-6 1-5 1-5 1-5 1-4v-14l-1-4-1-4-1-4-2-5-1-3-2-4-3-4-2-4-3-4-3-3-3-3-3-3-4-3-3-3-4-2-4-3-4-2-5-2-5-2-5-2-4-1-6-2-5-1-5-1h-6l-5-1H2l-6-1h-18l-6 1-7 1-7 1-7 1-7 1-7 2-6 2-6 2-7 3-7 3-6 3-6 3-6 3-6 4-6 5-6 4-6 5-5 5-6 5-5 6-5 5-4 6-5 6-4 7-5 6-4 7-4 6-4 7-5 7-4 7-4 6-4 7-5 7-5 8-4 7-5 7-4 7-5 7-5 7-5 7-5 7-5 7-5 8-5 7-4 7-5 6-5 7-4 7-5 7-6 8-4 6-5 7-5 7-5 7-5 5-6 6-5 6-5 4-6 5-5 4-5 3-6 3-6 3-6 2-7 3-7 1-6 1-6 1-6 1-7-1h-6l-6-1-6-1-6-2-5-2-6-2-6-3-5-3-5-3-5-4-5-4-5-4-4-5-4-5-4-5-4-5-3-6-3-6-2-5-3-6-2-7-2-6-2-7-1-7-1-6-2-7-1-7-1-6-1-6-1-6-1-4v-5l-1-5V85l1-6 2-4 2-5 2-4 3-3 4-4 4-2 3-2 4-1h3l4-1h4l5 1 5 1 4 1 6 3 5 3 3 1 4 3 5 2 3 2 4 1 5 1 3 1 3 1h12l4-1 3-1 3-1 4-1 5-3 2-2 4-2 3-4 2-3 2-4 2-3 1-4 1-4 1-4V26l-1-3-1-4-1-3-2-5-1-4-2-3-4-5-2-4-2-3-3-3-3-3-3-3-3-4-3-3-3-3-4-4-3-3-4-4-4-4-3-3-4-5-3-4-3-4-4-4-3-5-3-5-3-5-3-5-3-5-2-5-3-5-2-6-3-5-2-5-2-5-1-4-2-4-1-4-1-5-1-4v-11l1-6 1-6 3-5 3-4 3-3 2-2 3-2 4-1 3-1 6-1 5 1 6 1 5 3 4 2 4 4 2 2 5 5 3 4 3 4 2 3 3 5 2 3 2 3 2 4 3 3 2 4 3 3 3 4 3 3 3 4 4 3 3 3 4 4 5 3 4 3 4 2 5 3 5 2 5 3 5 2 6 1 5 2 6 1 5 1 6 1h18l6-1 6-1 6-1 5-2 7-2 5-2 6-3 6-3 5-4 5-3 5-4 5-4 5-4 5-5 4-5 4-5 4-6 4-5 4-6 3-5 4-7 4-5 3-6 4-6 3-6 4-6 4-6 4-7 3-5 3-6 4-5 3-5 2-4 3-5 2-4 3-4 2-3 3-5 2-4 1-3 2-5 1-4 1-6v-8l-1-5-1-3-1-4-2-3-1-3-2-3-2-2-3-3-3-4-3-2-4-3-5-3-3-2-3-2-4-2-4-2-3-1-4-2-4-1-5-2-4-1-4-1-5-1-4-1-5-1-5-1-5-1h-5l-5-1-5-1h-29l-6 1h-7l-5 1-7 1-6 1-6 1-6 1-6 1-6 2-7 2-6 1-7 2-7 3-6 2-7 2-6 2-7 3-7 3-6 3-7 3-6 3-6 3-7 4-7 4-7 4-6 4-6 4-6 4-7 5-6 5-6 5-5 5-6 6-6 5-5 6-5 6-5 7-4 6-5 7-4 7-4 7-4 7-3 8-3 8-3 8-3 8-2 8-2 8-2 8-2 9-2 8-2 9-2 8-2 8-2 9-2 9-1 8-2 9-2 9-1 8-2 8-2 9-1 8-2 9-1 8-2 9-1 8-2 9-1 9-1 9-1 8-2 9-1 10v8l-1 10-1 9v35l1 10v8l1 9 1 9 2 9 1 9 2 10 2 9 2 9 2 9 2 9 3 8 2 9 2 10 3 9 2 9 2 9 3 10 2 9 3 8 2 9 2 10 3 9 2 9 2 9 3 9 2 9 3 10 1 4z"/><path vector-effect="non-scaling-stroke" fill="none" style="stroke:#ef4444;stroke-width:9" d="m-504 398 2 9 2 10 3 9 2 9 2 9 3 10 2 9 3 10 2 9 2 9 3 9 2 9 2 9 3 10 2 9 2 9 2 9 3 9 2 10 2 8 3 9 2 9 2 8 2 8 2 7 2 7 2 6 2 6 3 6 1 4 2 5 2 4 2 4 3 4 2 4 3 3 2 3 3 3 3 2 3 2 5 3 3 1 5 2 3 1h12l3-1 3-1 3-1 3-1 4-2 2-1 3-2 4-3 7-5 4-4 5-3 4-3 4-2 4-2 4-2 4-1 4-2 5-1 5-1h5l4-1h5l6 1h5l5 1 5 2 5 1 5 2 5 2 4 2 6 3 5 2 5 2 6 2 5 2 6 1 6 1 6 1h7l6 1h7l6-1h7l7-1 6-2 7-2 6-2 7-2 6-3 7-3 6-4 6-3 6-4 6-5 6-5 5-5 6-5 5-6 5-5 4-7 5-6 4-7 4-6 4-7 3-7 3-8 4-8 2-7 3-8 2-8 2-7 2-9 2-7 2-8 2-8 2-9 2-8 2-8 2-8 2-8 2-8 2-8 2-8 2-9 2-9 3-8 2-8 2-8 2-9 2-8 4-13 2-9 2-8 3-9 2-9 2-9 2-8 3-9 2-9 2-8 3-9 2-9 2-9 2-8 2-9 3-9 2-9 2-9 2-8 3-9 2-9 2-9 2-9 3-9"/><path vector-effect="non-scaling-stroke" fill="none" style="stroke:#3b82f6;stroke-width:9" d="m55 165 2-9 2-9 3-8 2-9 3-10 2-9 2-8 3-10 2-9 3-9 2-8 2-9 2-7 2-8 2-7 2-6 1-6 2-6 1-5 1-5 1-5 1-4v-14l-1-4-1-4-1-4-2-5-1-3-2-4-3-4-2-4-3-4-3-3-3-3-3-3-4-3-3-3-4-2-4-3-4-2-5-2-5-2-5-2-4-1-6-2-5-1-5-1h-6l-5-1H2l-6-1h-18l-6 1-7 1-7 1-7 1-7 1-7 2-6 2-6 2-7 3-7 3-6 3-6 3-6 3-6 4-6 5-6 4-6 5-5 5-6 5-5 6-5 5-4 6-5 6-4 7-5 6-4 7-4 6-4 7-5 7-4 7-4 6-4 7-5 7-5 8-4 7-5 7-4 7-5 7-5 7-5 7-5 7-5 7-5 8-5 7-4 7-5 6-5 7-4 7-5 7-6 8-4 6-5 7-5 7-5 7-5 5-6 6-5 6-5 4-6 5-5 4-5 3-6 3-6 3-6 2-7 3-7 1-6 1-6 1-6 1-7-1h-6l-6-1-6-1-6-2-5-2-6-2-6-3-5-3-5-3-5-4-5-4-5-4-4-5-4-5-4-5-4-5-3-6-3-6-2-5-3-6-2-7-2-6-2-7-1-7-1-6-2-7-1-7-1-6-1-6-1-6-1-4v-5l-1-5V85l1-6 2-4 2-5 2-4 3-3 4-4 4-2 3-2 4-1h3l4-1h4l5 1 5 1 4 1 6 3 5 3 3 1 4 3 5 2 3 2 4 1 5 1 3 1 3 1h12l4-1 3-1 3-1 4-1 5-3 2-2 4-2 3-4 2-3 2-4 2-3 1-4 1-4 1-4V26l-1-3-1-4-1-3-2-5-1-4-2-3-4-5-2-4-2-3-3-3-3-3-3-3-3-4-3-3-3-3-4-4-3-3-4-4-4-4-3-3-4-5-3-4-3-4-4-4-3-5-3-5-3-5-3-5-3-5-2-5-3-5-2-6-3-5-2-5-2-5-1-4-2-4-1-4-1-5-1-4v-11l1-6 1-6 3-5 3-4 3-3 2-2 3-2 4-1 3-1 6-1 5 1 6 1 5 3 4 2 4 4 2 2 5 5 3 4 3 4 2 3 3 5 2 3 2 3 2 4 3 3 2 4 3 3 3 4 3 3 3 4 4 3 3 3 4 4 5 3 4 3 4 2 5 3 5 2 5 3 5 2 6 1 5 2 6 1 5 1 6 1h18l6-1 6-1 6-1 5-2 7-2 5-2 6-3 6-3 5-4 5-3 5-4 5-4 5-4 5-5 4-5 4-5 4-6 4-5 4-6 3-5 4-7 4-5 3-6 4-6 3-6"/><path vector-effect="non-scaling-stroke" fill="none" style="stroke:#fbbf24;stroke-width:9" d="m-167-183 4-6 4-6 4-7 3-5 3-6 4-5 3-5 2-4 3-5 2-4 3-4 2-3 3-5 2-4 1-3 2-5 1-4 1-6v-8l-1-5-1-3-1-4-2-3-1-3-2-3-2-2-3-3-3-4-3-2-4-3-5-3-3-2-3-2-4-2-4-2-3-1-4-2-4-1-5-2-4-1-4-1-5-1-4-1-5-1-5-1-5-1h-5l-5-1-5-1h-29l-6 1h-7l-5 1-7 1-6 1-6 1-6 1-6 1-6 2-7 2-6 1-7 2-7 3-6 2-7 2-6 2-7 3-7 3-6 3-7 3-6 3-6 3-7 4-7 4-7 4-6 4-6 4-6 4-7 5-6 5-6 5-5 5-6 6-6 5-5 6-5 6-5 7-4 6-5 7-4 7-4 7-4 7-3 8-3 8-3 8-3 8-2 8-2 8-2 8-2 9-2 8-2 9-2 8-2 8-2 9-2 9-1 8-2 9-2 9-1 8-2 8-2 9-1 8-2 9-1 8-2 9-1 8-2 9-1 9-1 9-1 8-2 9-1 10v8l-1 10-1 9v35l1 10v8l1 9 1 9 2 9 1 9 2 10 2 9 2 9 2 9 2 9 3 8 2 9 2 10 3 9 2 9 2 9 3 10 2 9 3 8 2 9 2 10 3 9 2 9 2 9 3 9 2 9 3 10 1 4"/><circle cx="-504" cy="398" r="17" stroke="#000" stroke-width="13" fill="#fff"/></svg>